<svg width="32" height="32" viewBox="0 0 32 32" fill="none" xmlns="http://www.w3.org/2000/svg">
<path fill-rule="evenodd" clip-rule="evenodd" d="M4.00308 14.0108C4.00308 11.3566 5.05745 8.81106 6.93426 6.93426C8.81106 5.05745 11.3566 4.00307 14.0108 4.00307C16.665 4.00307 19.2105 5.05745 21.0873 6.93426C22.9641 8.81106 24.0184 11.3566 24.0184 14.0108C24.0184 16.665 22.9641 19.2105 21.0873 21.0873C19.2105 22.9641 16.665 24.0184 14.0108 24.0184C11.3566 24.0184 8.81106 22.9641 6.93426 21.0873C5.05745 19.2105 4.00308 16.665 4.00308 14.0108ZM14.0108 0C11.7907 0 9.60247 0.52755 7.62633 1.53918C5.65018 2.5508 3.94272 4.01754 2.64464 5.81852C1.34657 7.61951 0.495043 9.70318 0.160243 11.8978C-0.174557 14.0925 0.0169524 16.3352 0.718988 18.4414C1.42102 20.5475 2.61349 22.4566 4.19811 24.0114C5.78274 25.5663 7.71416 26.7223 9.83321 27.3842C11.9523 28.0462 14.1983 28.1951 16.3862 27.8187C18.5741 27.4423 20.6412 26.5514 22.4172 25.2194C22.4741 25.2951 22.5363 25.3666 22.6034 25.4335L28.608 31.4381C28.9855 31.8027 29.4911 32.0045 30.0159 31.9999C30.5406 31.9954 31.0427 31.7849 31.4138 31.4138C31.7849 31.0427 31.9954 30.5406 31.9999 30.0159C32.0045 29.4911 31.8027 28.9855 31.4381 28.608L25.4335 22.6034C25.3666 22.5363 25.2951 22.4741 25.2194 22.4172C26.7805 20.3356 27.7312 17.8605 27.9649 15.269C28.1986 12.6776 27.706 10.0722 26.5424 7.74496C25.3787 5.41769 23.59 3.46043 21.3767 2.0925C19.1633 0.724561 16.6127 0 14.0108 0Z" fill="#D55026"/>
</svg>
