<svg width="22" height="22" viewBox="0 0 22 22" fill="none" xmlns="http://www.w3.org/2000/svg">
<path d="M19.1328 22H18.8424C15.5704 21.6454 12.4269 20.5341 9.66238 18.7547C7.09424 17.1254 4.91378 14.9576 3.27303 12.4025C1.48269 9.6415 0.366903 6.50091 0.0152104 3.23271C-0.0249946 2.84289 0.0147054 2.449 0.131924 2.07493C0.249129 1.70087 0.441403 1.35442 0.697079 1.0566C0.945759 0.754805 1.2527 0.505786 1.59975 0.324289C1.94678 0.142805 2.32684 0.0325283 2.71743 0H6.0005C6.71156 0.000716981 7.39892 0.25468 7.93847 0.716026C8.47802 1.17737 8.83417 1.8157 8.94263 2.51572C9.06259 3.41494 9.2871 4.2972 9.61187 5.14466C9.80936 5.67721 9.85015 6.25488 9.72943 6.80974C9.60859 7.36458 9.3313 7.87354 8.93001 8.27673L8.15975 9.04402C9.37246 10.9512 10.9992 12.5631 12.9202 13.761L13.6905 13.0063C14.0952 12.6065 14.6062 12.3303 15.1632 12.2099C15.7202 12.0897 16.3 12.1303 16.8346 12.327C17.6863 12.6475 18.5716 12.8712 19.4737 12.9937C20.1884 13.1007 20.8393 13.4639 21.3044 14.0151C21.7693 14.5664 22.0164 15.2677 21.9991 15.9874V19.0063C21.9991 19.7914 21.6869 20.5447 21.1308 21.101C20.5747 21.6574 19.8199 21.9716 19.0318 21.9748L19.1328 22ZM6.0005 1.87421H2.9826C2.83442 1.88398 2.68976 1.92356 2.55738 1.99058C2.42498 2.0576 2.30761 2.15067 2.21234 2.26415C2.11963 2.37045 2.04945 2.49435 2.00605 2.62838C1.96265 2.7624 1.94692 2.90379 1.9598 3.04403C2.26599 6.00853 3.26497 8.86037 4.87668 11.3711C6.36244 13.694 8.34072 15.6646 10.6726 17.1447C13.1946 18.767 16.0606 19.7834 19.0444 20.1132C19.1996 20.1219 19.3549 20.0985 19.5005 20.0444C19.6461 19.9902 19.7789 19.9065 19.8904 19.7987C20.0914 19.5935 20.2047 19.3184 20.2061 19.0314V16.0252C20.2118 15.7605 20.1198 15.5029 19.9476 15.3011C19.7754 15.0995 19.5348 14.9677 19.2717 14.9308C18.2285 14.7911 17.2038 14.538 16.2159 14.1761C16.0213 14.1036 15.8101 14.0875 15.6066 14.1299C15.4032 14.1722 15.2161 14.2711 15.0668 14.4151L13.8041 15.673C13.6562 15.8166 13.4657 15.9089 13.261 15.9361C13.0562 15.9633 12.8482 15.9239 12.6677 15.8239C9.97326 14.3072 7.74301 12.0899 6.21516 9.4088C6.11058 9.23018 6.06871 9.02188 6.09615 8.81685C6.12359 8.61194 6.21877 8.42185 6.36669 8.27673L7.62941 7.01887C7.77421 6.87298 7.87383 6.68868 7.91637 6.48795C7.95891 6.28722 7.94258 6.07853 7.86932 5.8868C7.50464 4.90312 7.25055 3.88222 7.11169 2.84277C7.08036 2.57267 6.94922 2.32385 6.7438 2.14481C6.53838 1.96575 6.27341 1.8693 6.0005 1.87421Z" fill="#D55026"/>
</svg>
