<svg width="48" height="48" viewBox="0 0 48 48" fill="none" xmlns="http://www.w3.org/2000/svg">
<path fill-rule="evenodd" clip-rule="evenodd" d="M6.00461 21.0161C6.00461 17.0348 7.58618 13.2166 10.4014 10.4014C13.2166 7.58618 17.0348 6.00461 21.0161 6.00461C24.9974 6.00461 28.8157 7.58618 31.6309 10.4014C34.4461 13.2166 36.0277 17.0348 36.0277 21.0161C36.0277 24.9974 34.4461 28.8157 31.6309 31.6309C28.8157 34.4461 24.9974 36.0277 21.0161 36.0277C17.0348 36.0277 13.2166 34.4461 10.4014 31.6309C7.58618 28.8157 6.00461 24.9974 6.00461 21.0161ZM21.0161 0C17.6861 0 14.4037 0.791325 11.4395 2.30876C8.47528 3.8262 5.91408 6.02631 3.96696 8.72779C2.01985 11.4293 0.742564 14.5548 0.240365 17.8467C-0.261835 21.1387 0.0254285 24.5029 1.07848 27.662C2.13154 30.8212 3.92023 33.6849 6.29717 36.0171C8.67411 38.3494 11.5712 40.0834 14.7498 41.0763C17.9284 42.0692 21.2974 42.2926 24.5792 41.728C27.8611 41.1634 30.9618 39.8271 33.6258 37.8291C33.7112 37.9426 33.8045 38.05 33.905 38.1503L42.912 47.1572C43.4782 47.7041 44.2366 48.0067 45.0238 47.9999C45.811 47.993 46.564 47.6773 47.1206 47.1206C47.6773 46.564 47.993 45.811 47.9999 45.0238C48.0067 44.2366 47.7041 43.4782 47.1572 42.9119L38.1503 33.905C38.05 33.8045 37.9426 33.7112 37.8291 33.6258C40.1708 30.5035 41.5969 26.7907 41.9474 22.9035C42.2979 19.0163 41.559 15.1083 39.8135 11.6174C38.0681 8.12653 35.385 5.19064 32.065 3.13874C28.7449 1.08684 24.9191 0 21.0161 0Z" fill="#D55026"/>
</svg>
