<svg width="23" height="23" viewBox="0 0 23 23" fill="none" xmlns="http://www.w3.org/2000/svg">
<path d="M11.1867 0C12.7352 0 14.1902 0.293683 15.5518 0.881049C16.9135 1.46841 18.1015 2.26937 19.1161 3.28391C20.1306 4.29845 20.9316 5.48208 21.5189 6.8348C22.1063 8.18752 22.4 9.63814 22.4 11.1867C22.4 12.7352 22.1063 14.1902 21.5189 15.5518C20.9316 16.9135 20.1306 18.1015 19.1161 19.1161C18.1015 20.1306 16.9135 20.9316 15.5518 21.5189C14.1902 22.1063 12.7352 22.4 11.1867 22.4C9.63814 22.4 8.18752 22.1063 6.8348 21.5189C5.48208 20.9316 4.29845 20.1306 3.28391 19.1161C2.26937 18.1015 1.46841 16.9135 0.881049 15.5518C0.293683 14.1902 0 12.7352 0 11.1867C0 9.63814 0.293683 8.18752 0.881049 6.8348C1.46841 5.48208 2.26937 4.29845 3.28391 3.28391C4.29845 2.26937 5.48208 1.46841 6.8348 0.881049C8.18752 0.293683 9.63814 0 11.1867 0ZM15.405 4.88582H13.0288C12.5661 4.88582 12.1389 4.96591 11.7473 5.1261C11.3557 5.28629 11.0131 5.49988 10.7194 5.76687C10.4257 6.03385 10.1988 6.33643 10.0386 6.67461C9.87843 7.01279 9.79833 7.35097 9.79833 7.68915V9.10417H7.68915V11.8808H9.79833V17.4875H12.6017V11.8808H14.6841V9.10417H12.6017V8.38331C12.6017 8.16973 12.6862 8.00064 12.8553 7.87604C13.0244 7.75145 13.1712 7.68915 13.2958 7.68915H15.405V4.88582Z" fill="#D55026"/>
</svg>
