<svg width="23" height="23" viewBox="0 0 23 23" fill="none" xmlns="http://www.w3.org/2000/svg">
<path d="M11.0796 13.6755C10.7406 13.6755 10.4239 13.6131 10.1295 13.4882C9.83512 13.3633 9.57642 13.1893 9.3534 12.9663C9.13039 12.7433 8.95643 12.4801 8.83154 12.1768C8.70665 11.8735 8.64421 11.5524 8.64421 11.2134C8.64421 10.8744 8.70665 10.5577 8.83154 10.2633C8.95643 9.96894 9.13039 9.71023 9.3534 9.48722C9.57642 9.2642 9.83512 9.09024 10.1295 8.96535C10.4239 8.84046 10.7406 8.77802 11.0796 8.77802C11.7575 8.77802 12.3329 9.01442 12.8057 9.48722C13.2785 9.96002 13.5149 10.5354 13.5149 11.2134C13.5149 11.5524 13.4525 11.8735 13.3276 12.1768C13.2027 12.4801 13.0288 12.7433 12.8057 12.9663C12.5827 13.1893 12.324 13.3633 12.0296 13.4882C11.7352 13.6131 11.4186 13.6755 11.0796 13.6755ZM14.9869 11.2134C14.9869 11.0528 14.9779 10.8878 14.9601 10.7183C14.9423 10.5488 14.9155 10.3927 14.8798 10.2499H15.9771V15.6292C15.9771 15.7719 15.9325 15.8879 15.8432 15.9771C15.754 16.0663 15.6381 16.1109 15.4953 16.1109H6.6638C6.52107 16.1109 6.4051 16.0663 6.31589 15.9771C6.22668 15.8879 6.18208 15.7719 6.18208 15.6292V10.2499H7.27933C7.24365 10.3927 7.21689 10.5488 7.19904 10.7183C7.1812 10.8878 7.17228 11.0528 7.17228 11.2134C7.17228 11.7486 7.27487 12.2571 7.48005 12.7388C7.68522 13.2205 7.96177 13.6398 8.30968 13.9967C8.65759 14.3535 9.0724 14.6345 9.55412 14.8397C10.0358 15.0448 10.5443 15.1474 11.0796 15.1474C11.6148 15.1474 12.1233 15.0448 12.605 14.8397C13.0867 14.6345 13.5016 14.3535 13.8495 13.9967C14.1974 13.6398 14.4739 13.2205 14.6791 12.7388C14.8843 12.2571 14.9869 11.7486 14.9869 11.2134ZM11.1866 0C12.7388 0 14.1929 0.294385 15.5489 0.883154C16.9048 1.47192 18.0913 2.27033 19.1082 3.27838C20.1252 4.28642 20.9281 5.46842 21.5168 6.82437C22.1056 8.18033 22.4 9.63441 22.4 11.1866C22.4 12.7388 22.1056 14.1929 21.5168 15.5489C20.9281 16.9048 20.1252 18.0913 19.1082 19.1082C18.0913 20.1252 16.9048 20.9281 15.5489 21.5168C14.1929 22.1056 12.7388 22.4 11.1866 22.4C9.63441 22.4 8.18033 22.1056 6.82437 21.5168C5.46842 20.9281 4.28642 20.1252 3.27838 19.1082C2.27033 18.0913 1.47192 16.9048 0.883154 15.5489C0.294385 14.1929 0 12.7388 0 11.1866C0 9.63441 0.294385 8.18033 0.883154 6.82437C1.47192 5.46842 2.27033 4.28642 3.27838 3.27838C4.28642 2.27033 5.46842 1.47192 6.82437 0.883154C8.18033 0.294385 9.63441 0 11.1866 0ZM17.449 6.31589C17.449 5.90554 17.3063 5.55763 17.0208 5.27216C16.7353 4.9867 16.3874 4.84397 15.9771 4.84397H6.18208C5.77172 4.84397 5.42382 4.9867 5.13835 5.27216C4.85289 5.55763 4.71016 5.90554 4.71016 6.31589V16.1109C4.71016 16.5212 4.85289 16.8691 5.13835 17.1546C5.42382 17.4401 5.77172 17.5828 6.18208 17.5828H15.9771C16.3874 17.5828 16.7353 17.4401 17.0208 17.1546C17.3063 16.8691 17.449 16.5212 17.449 16.1109V6.31589ZM15.4953 6.31589C15.6381 6.31589 15.754 6.36495 15.8432 6.46308C15.9325 6.56121 15.9771 6.68164 15.9771 6.82437V8.2963C15.9771 8.43903 15.9325 8.555 15.8432 8.64421C15.754 8.73341 15.6381 8.77802 15.4953 8.77802H14.0234C13.8807 8.77802 13.7603 8.73341 13.6621 8.64421C13.564 8.555 13.5149 8.43903 13.5149 8.2963V6.82437C13.5149 6.68164 13.564 6.56121 13.6621 6.46308C13.7603 6.36495 13.8807 6.31589 14.0234 6.31589H15.4953Z" fill="#D55026"/>
</svg>
