<svg width="20" height="24" viewBox="0 0 20 24" fill="none" xmlns="http://www.w3.org/2000/svg">
<path fill-rule="evenodd" clip-rule="evenodd" d="M10.0001 5.45459C7.54551 5.45459 5.55566 7.40827 5.55566 9.81827C5.55566 12.2282 7.54551 14.1819 10.0001 14.1819C12.4547 14.1819 14.4446 12.2282 14.4446 9.81827C14.4446 7.40827 12.4547 5.45459 10.0001 5.45459ZM10.0001 7.63643C8.77278 7.63643 7.77789 8.61327 7.77789 9.81827C7.77789 11.0233 8.77278 12.0001 10.0001 12.0001C11.2274 12.0001 12.2223 11.0233 12.2223 9.81827C12.2223 8.61327 11.2274 7.63643 10.0001 7.63643Z" fill="#D55026"/>
<path fill-rule="evenodd" clip-rule="evenodd" d="M8.989 23.5593C9.11767 23.646 9.22011 23.7129 9.29178 23.7589L9.40967 23.8335C9.77033 24.0552 10.229 24.0556 10.5897 23.834L10.7083 23.7589C10.7799 23.7129 10.8823 23.646 11.011 23.5593C11.2683 23.3857 11.6317 23.132 12.0657 22.8047C12.9318 22.1515 14.089 21.199 15.2497 20.0005C17.5397 17.6359 20 14.1519 20 10.0166C20 7.36786 18.9523 4.82278 17.0799 2.94251C15.2066 1.06142 12.6603 0 10 0C7.33968 0 4.7935 1.06142 2.92016 2.94251C1.04764 4.82278 0 7.36786 0 10.0166C0 14.1519 2.46038 17.6359 4.75034 20.0005C5.91103 21.199 7.06818 22.1515 7.93433 22.8047C8.36833 23.132 8.73167 23.3857 8.989 23.5593ZM10 2.18184C7.94533 2.18184 5.9697 3.00119 4.50906 4.46788C3.04759 5.9354 2.22222 7.93089 2.22222 10.0166C2.22222 13.31 4.20629 16.2724 6.36077 18.497C7.4223 19.5931 8.48733 20.4707 9.28789 21.0743C9.56067 21.28 9.80167 21.453 10 21.5912C10.1983 21.453 10.4393 21.28 10.7121 21.0743C11.5127 20.4707 12.5777 19.5931 13.6392 18.497C15.7937 16.2724 17.7778 13.31 17.7778 10.0166C17.7778 7.93089 16.9524 5.9354 15.4909 4.46788C14.0303 3.00119 12.0547 2.18184 10 2.18184Z" fill="#D55026"/>
</svg>
