<svg width="23" height="23" viewBox="0 0 23 23" fill="none" xmlns="http://www.w3.org/2000/svg">
<path d="M11.1866 0C12.7388 0 14.1929 0.294385 15.5489 0.883154C16.9048 1.47192 18.0913 2.27033 19.1082 3.27838C20.1252 4.28642 20.9281 5.46842 21.5168 6.82437C22.1056 8.18033 22.4 9.63441 22.4 11.1866C22.4 12.7388 22.1056 14.1929 21.5168 15.5489C20.9281 16.9048 20.1252 18.0913 19.1082 19.1082C18.0913 20.1252 16.9048 20.9281 15.5489 21.5168C14.1929 22.1056 12.7388 22.4 11.1866 22.4C9.63441 22.4 8.18033 22.1056 6.82437 21.5168C5.46842 20.9281 4.28642 20.1252 3.27838 19.1082C2.27033 18.0913 1.47192 16.9048 0.883154 15.5489C0.294385 14.1929 0 12.7388 0 11.1866C0 9.63441 0.294385 8.18033 0.883154 6.82437C1.47192 5.46842 2.27033 4.28642 3.27838 3.27838C4.28642 2.27033 5.46842 1.47192 6.82437 0.883154C8.18033 0.294385 9.63441 0 11.1866 0ZM16.7532 8.77802C17.2706 8.3855 17.7255 7.9127 18.118 7.35962C17.8683 7.46667 17.614 7.55587 17.3553 7.62724C17.0966 7.69861 16.8245 7.75213 16.5391 7.78781C16.8245 7.6094 17.0743 7.39084 17.2884 7.13214C17.5025 6.87344 17.6542 6.59243 17.7434 6.28913C17.4757 6.43186 17.1992 6.56121 16.9137 6.67718C16.6283 6.79315 16.3339 6.8779 16.0306 6.93142C15.7808 6.68164 15.4864 6.47646 15.1474 6.31589C14.8084 6.15532 14.4338 6.07503 14.0234 6.07503C13.6487 6.07503 13.2964 6.1464 12.9663 6.28913C12.6362 6.43186 12.3508 6.62812 12.1099 6.8779C11.8691 7.12768 11.6773 7.4176 11.5345 7.74767C11.3918 8.07774 11.3204 8.43011 11.3204 8.80478C11.3204 8.91183 11.3249 9.01888 11.3338 9.12593C11.3427 9.23298 11.3561 9.3311 11.374 9.42031C10.2499 9.36679 9.20621 9.09024 8.24277 8.59068C7.27933 8.09112 6.45862 7.42206 5.78064 6.58351C5.53086 6.99387 5.40597 7.44882 5.40597 7.94839C5.40597 8.41227 5.51748 8.84492 5.7405 9.24636C5.96352 9.64779 6.25344 9.9734 6.61027 10.2232C6.1464 10.1875 5.73604 10.0715 5.37921 9.87527V9.90203C5.37921 10.58 5.58885 11.1643 6.00812 11.655C6.4274 12.1456 6.94926 12.4534 7.57372 12.5783C7.44882 12.6139 7.32839 12.6407 7.21243 12.6585C7.09646 12.6764 6.97603 12.6853 6.85113 12.6853C6.76193 12.6853 6.67718 12.6808 6.59689 12.6719C6.51661 12.663 6.43186 12.6496 6.34265 12.6318C6.52107 13.167 6.83775 13.6131 7.29271 13.9699C7.74767 14.3267 8.27845 14.5051 8.88507 14.5051C8.42119 14.8798 7.89932 15.1697 7.31947 15.3749C6.73963 15.5801 6.13748 15.6827 5.51302 15.6827C5.38813 15.6827 5.27216 15.6782 5.16511 15.6693C5.05806 15.6604 4.95102 15.647 4.84397 15.6292C5.45058 16.0217 6.10625 16.325 6.81099 16.5391C7.51573 16.7532 8.25169 16.8602 9.01888 16.8602C10.2678 16.8602 11.374 16.6238 12.3374 16.151C13.3008 15.6782 14.1082 15.0716 14.7594 14.3312C15.4106 13.5908 15.9057 12.7611 16.2447 11.8423C16.5837 10.9235 16.7532 10.018 16.7532 9.12593V8.77802Z" fill="#D55026"/>
</svg>
