<svg width="23" height="23" viewBox="0 0 23 23" fill="none" xmlns="http://www.w3.org/2000/svg">
<path d="M16.1644 13.6755C16.3071 13.6755 16.4053 13.7201 16.4588 13.8093C16.5301 13.8807 16.5658 14.0056 16.5658 14.184V14.6389H15.763V14.184C15.763 14.0234 15.7897 13.8985 15.8432 13.8093C15.9325 13.7201 16.0395 13.6755 16.1644 13.6755ZM13.0332 13.6755C13.1581 13.6755 13.2473 13.7112 13.3008 13.7826C13.3722 13.8539 13.4079 13.961 13.4079 14.1037V16.3517C13.4079 16.4945 13.3811 16.5926 13.3276 16.6461C13.2741 16.7175 13.1938 16.7532 13.0867 16.7532C13.0154 16.7532 12.944 16.7353 12.8726 16.6996C12.7834 16.664 12.7121 16.6104 12.6585 16.5391V13.8361C12.7299 13.7647 12.7924 13.7201 12.8459 13.7023C12.8816 13.6844 12.944 13.6755 13.0332 13.6755ZM11.2134 0C12.7656 0 14.2197 0.294385 15.5756 0.883154C16.9316 1.47192 18.1136 2.27033 19.1216 3.27838C20.1297 4.28642 20.9281 5.46842 21.5168 6.82437C22.1056 8.18033 22.4 9.63441 22.4 11.1866C22.4 12.7388 22.1056 14.1929 21.5168 15.5489C20.9281 16.9048 20.1297 18.0913 19.1216 19.1082C18.1136 20.1252 16.9316 20.9281 15.5756 21.5168C14.2197 22.1056 12.7656 22.4 11.2134 22.4C9.66117 22.4 8.20709 22.1056 6.85113 21.5168C5.49518 20.9281 4.30872 20.1252 3.29176 19.1082C2.27479 18.0913 1.47192 16.9048 0.883154 15.5489C0.294385 14.1929 0 12.7388 0 11.1866C0 9.63441 0.294385 8.18033 0.883154 6.82437C1.47192 5.46842 2.27479 4.28642 3.29176 3.27838C4.30872 2.27033 5.49518 1.47192 6.85113 0.883154C8.20709 0.294385 9.66117 0 11.2134 0ZM8.05544 11.481H4.89749V12.3374H5.96798V17.3687H6.98495V12.3374H8.05544V11.481ZM8.0822 8.69773L9.42031 4.89749H8.24277L7.54695 7.49343H7.46667L6.71732 4.89749H5.56655L6.93142 8.80478V11.374H8.0822V8.69773ZM11.0528 13.0332H10.1429V16.325C10.1072 16.3785 10.0626 16.4231 10.0091 16.4588L9.84851 16.5658C9.74146 16.6194 9.66117 16.6461 9.60765 16.6461C9.51844 16.6461 9.45599 16.6283 9.42031 16.5926C9.38463 16.5569 9.36679 16.4766 9.36679 16.3517V13.0332H8.45687V16.6729C8.45687 16.9227 8.51039 17.11 8.61744 17.2349C8.72449 17.3776 8.87614 17.449 9.0724 17.449C9.23298 17.449 9.41139 17.3955 9.60765 17.2884C9.76822 17.217 9.94663 17.0832 10.1429 16.887V17.3687H11.0528V13.0332ZM10.9725 11.481C11.4542 11.481 11.82 11.365 12.0698 11.1331C12.3374 10.919 12.4712 10.5978 12.4712 10.1697V7.70753C12.4712 7.36854 12.3374 7.07415 12.0698 6.82437C11.82 6.59243 11.4721 6.47646 11.026 6.47646C10.5622 6.47646 10.1964 6.58351 9.92879 6.79761C9.64333 7.01171 9.5006 7.30609 9.5006 7.68076V10.1697C9.5006 10.58 9.63441 10.9012 9.90203 11.1331C10.1518 11.365 10.5086 11.481 10.9725 11.481ZM14.3446 14.0769C14.3446 13.7201 14.2643 13.4436 14.1037 13.2473C13.9788 13.0689 13.7647 12.9797 13.4614 12.9797C13.3008 12.9797 13.1581 13.0154 13.0332 13.0867C12.8905 13.1403 12.7656 13.2384 12.6585 13.3811V11.481H11.7219V17.3687H12.6585V17.0476C12.7121 17.1189 12.7701 17.1769 12.8325 17.2215C12.8949 17.2661 12.9618 17.3063 13.0332 17.3419C13.1581 17.3955 13.3187 17.4222 13.5149 17.4222C13.7826 17.4222 13.9877 17.3419 14.1305 17.1814C14.2732 17.0029 14.3446 16.771 14.3446 16.4855V14.0769ZM14.0234 11.4275C14.2375 11.4275 14.4338 11.3829 14.6122 11.2937C14.7906 11.2045 14.9869 11.0528 15.201 10.8387V11.374H16.2179V6.58351H15.201V10.2232C15.1296 10.3124 15.0225 10.4016 14.8798 10.4908C14.7728 10.5443 14.6836 10.5711 14.6122 10.5711C14.4873 10.5711 14.4159 10.5443 14.3981 10.4908C14.3446 10.4373 14.3178 10.357 14.3178 10.2499V6.58351H13.3008V10.5978C13.3008 10.8833 13.3633 11.0885 13.4882 11.2134C13.5774 11.3561 13.7558 11.4275 14.0234 11.4275ZM17.5025 14.2108C17.5025 13.7826 17.3865 13.4614 17.1546 13.2473C16.9405 13.0332 16.6194 12.9262 16.1912 12.9262C15.7808 12.9262 15.4507 13.0421 15.201 13.2741C14.9512 13.5239 14.8263 13.8361 14.8263 14.2108V16.1376C14.8263 16.5658 14.9423 16.8959 15.1742 17.1278C15.424 17.3776 15.7451 17.5025 16.1376 17.5025C16.5837 17.5025 16.9227 17.3865 17.1546 17.1546C17.3865 16.9405 17.5025 16.6015 17.5025 16.1376V15.9235H16.5658V16.1109C16.5658 16.3785 16.5391 16.548 16.4855 16.6194C16.4142 16.6907 16.3071 16.7264 16.1644 16.7264C15.986 16.7264 15.8789 16.6818 15.8432 16.5926C15.7897 16.5212 15.763 16.3607 15.763 16.1109V15.308H17.5025V14.2108ZM10.9725 7.30609C11.0974 7.30609 11.2134 7.33286 11.3204 7.38638C11.3918 7.45775 11.4275 7.54695 11.4275 7.654V10.2499C11.4275 10.3927 11.3918 10.4908 11.3204 10.5443C11.2491 10.6157 11.1331 10.6514 10.9725 10.6514C10.8298 10.6514 10.7317 10.6157 10.6781 10.5443C10.5889 10.4908 10.5443 10.3927 10.5443 10.2499V7.654C10.5443 7.56479 10.5889 7.47559 10.6781 7.38638C10.7495 7.33286 10.8476 7.30609 10.9725 7.30609Z" fill="#D55026"/>
</svg>
